<mxfile host="app.diagrams.net" modified="2023-08-16T08:43:02.729Z" agent="Mozilla/5.0 (Windows NT 10.0; Win64; x64) AppleWebKit/537.36 (KHTML, like Gecko) Chrome/115.0.0.0 Safari/537.36 Edg/115.0.1901.203" etag="kF4mFix4l5-A6hknYHDA" version="21.6.6" type="github">
  <diagram name="第 1 页" id="vb60F82lbMc9g9bm6j9_">
    <mxGraphModel dx="2261" dy="3126" grid="1" gridSize="10" guides="1" tooltips="1" connect="1" arrows="1" fold="1" page="1" pageScale="1" pageWidth="827" pageHeight="1169" math="0" shadow="0">
      <root>
        <mxCell id="0" />
        <mxCell id="1" parent="0" />
        <mxCell id="jxshLm3MOeYJrLO8u9Th-48" value="" style="group" vertex="1" connectable="0" parent="1">
          <mxGeometry x="198.75" y="-2250" width="1331.25" height="1410" as="geometry" />
        </mxCell>
        <mxCell id="jxshLm3MOeYJrLO8u9Th-95" value="" style="group" vertex="1" connectable="0" parent="jxshLm3MOeYJrLO8u9Th-48">
          <mxGeometry x="16.75" y="-10" width="1314.5" height="1410" as="geometry" />
        </mxCell>
        <mxCell id="jxshLm3MOeYJrLO8u9Th-103" value="" style="group" vertex="1" connectable="0" parent="jxshLm3MOeYJrLO8u9Th-95">
          <mxGeometry x="-145.5" y="575.2" width="1100" height="310" as="geometry" />
        </mxCell>
        <mxCell id="jxshLm3MOeYJrLO8u9Th-11" value="&lt;b&gt;&lt;font style=&quot;font-size: 16px;&quot;&gt;deviceWaitControlQueueMap&lt;/font&gt;&lt;/b&gt;" style="rounded=0;whiteSpace=wrap;html=1;align=left;verticalAlign=top;" vertex="1" parent="jxshLm3MOeYJrLO8u9Th-103">
          <mxGeometry x="-30" y="-50" width="510" height="360" as="geometry" />
        </mxCell>
        <mxCell id="jxshLm3MOeYJrLO8u9Th-94" value="&lt;h1 style=&quot;&quot;&gt;&lt;span style=&quot;font-size: 14px; font-weight: 400;&quot;&gt;其他等待设备&lt;/span&gt;&lt;font style=&quot;font-size: 18px;&quot;&gt;......&lt;/font&gt;&lt;/h1&gt;" style="text;html=1;strokeColor=none;fillColor=none;spacing=5;spacingTop=-20;whiteSpace=wrap;overflow=hidden;rounded=0;verticalAlign=middle;" vertex="1" parent="jxshLm3MOeYJrLO8u9Th-103">
          <mxGeometry x="9.25" y="240" width="433.5" height="58.000000000000014" as="geometry" />
        </mxCell>
        <mxCell id="jxshLm3MOeYJrLO8u9Th-70" value="" style="group" vertex="1" connectable="0" parent="jxshLm3MOeYJrLO8u9Th-103">
          <mxGeometry x="10" y="-2.1316282072803006e-14" width="426.5" height="69.60000000000001" as="geometry" />
        </mxCell>
        <mxCell id="jxshLm3MOeYJrLO8u9Th-12" value="&lt;div style=&quot;&quot;&gt;&lt;span style=&quot;background-color: initial;&quot;&gt;&lt;b&gt;设备1&lt;/b&gt;&lt;/span&gt;&lt;/div&gt;" style="rounded=0;whiteSpace=wrap;html=1;verticalAlign=middle;dashed=1;align=left;" vertex="1" parent="jxshLm3MOeYJrLO8u9Th-70">
          <mxGeometry width="417.5" height="69.60000000000001" as="geometry" />
        </mxCell>
        <mxCell id="jxshLm3MOeYJrLO8u9Th-17" value="varsn&lt;br&gt;value&lt;br&gt;uuid&lt;br&gt;type" style="rounded=0;whiteSpace=wrap;html=1;" vertex="1" parent="jxshLm3MOeYJrLO8u9Th-70">
          <mxGeometry x="67.5" width="90" height="69.60000000000001" as="geometry" />
        </mxCell>
        <mxCell id="jxshLm3MOeYJrLO8u9Th-67" value="varsn&lt;br&gt;value&lt;br&gt;uuid&lt;br&gt;type" style="rounded=0;whiteSpace=wrap;html=1;" vertex="1" parent="jxshLm3MOeYJrLO8u9Th-70">
          <mxGeometry x="247.5" width="90" height="69.60000000000001" as="geometry" />
        </mxCell>
        <mxCell id="jxshLm3MOeYJrLO8u9Th-66" value="varsn&lt;br&gt;value&lt;br&gt;uuid&lt;br&gt;type" style="rounded=0;whiteSpace=wrap;html=1;" vertex="1" parent="jxshLm3MOeYJrLO8u9Th-70">
          <mxGeometry x="336.5" width="90" height="69.60000000000001" as="geometry" />
        </mxCell>
        <mxCell id="jxshLm3MOeYJrLO8u9Th-65" value="varsn&lt;br&gt;value&lt;br&gt;uuid&lt;br&gt;type" style="rounded=0;whiteSpace=wrap;html=1;" vertex="1" parent="jxshLm3MOeYJrLO8u9Th-70">
          <mxGeometry x="157.5" width="90" height="69.60000000000001" as="geometry" />
        </mxCell>
        <mxCell id="jxshLm3MOeYJrLO8u9Th-79" value="" style="group" vertex="1" connectable="0" parent="jxshLm3MOeYJrLO8u9Th-103">
          <mxGeometry x="9.25" y="80" width="430.75" height="69.6" as="geometry" />
        </mxCell>
        <mxCell id="jxshLm3MOeYJrLO8u9Th-80" value="" style="group" vertex="1" connectable="0" parent="jxshLm3MOeYJrLO8u9Th-79">
          <mxGeometry width="430.75000000000006" height="69.6" as="geometry" />
        </mxCell>
        <mxCell id="jxshLm3MOeYJrLO8u9Th-81" value="&lt;div style=&quot;&quot;&gt;&lt;span style=&quot;background-color: initial;&quot;&gt;&lt;b&gt;设备3&lt;/b&gt;&lt;/span&gt;&lt;/div&gt;" style="rounded=0;whiteSpace=wrap;html=1;verticalAlign=middle;dashed=1;align=left;" vertex="1" parent="jxshLm3MOeYJrLO8u9Th-80">
          <mxGeometry width="421.66031652989454" height="69.6" as="geometry" />
        </mxCell>
        <mxCell id="jxshLm3MOeYJrLO8u9Th-82" value="varsn&lt;br&gt;value&lt;br&gt;uuid&lt;br&gt;type" style="rounded=0;whiteSpace=wrap;html=1;" vertex="1" parent="jxshLm3MOeYJrLO8u9Th-80">
          <mxGeometry x="68.17262602579133" width="90.89683470105511" height="69.6" as="geometry" />
        </mxCell>
        <mxCell id="jxshLm3MOeYJrLO8u9Th-72" value="" style="group" vertex="1" connectable="0" parent="jxshLm3MOeYJrLO8u9Th-103">
          <mxGeometry x="6.5" y="160" width="433.5" height="69.6" as="geometry" />
        </mxCell>
        <mxCell id="jxshLm3MOeYJrLO8u9Th-73" value="" style="group" vertex="1" connectable="0" parent="jxshLm3MOeYJrLO8u9Th-72">
          <mxGeometry width="433.5" height="69.6" as="geometry" />
        </mxCell>
        <mxCell id="jxshLm3MOeYJrLO8u9Th-74" value="&lt;div style=&quot;&quot;&gt;&lt;span style=&quot;background-color: initial;&quot;&gt;&lt;b&gt;设备2&lt;/b&gt;&lt;/span&gt;&lt;/div&gt;" style="rounded=0;whiteSpace=wrap;html=1;verticalAlign=middle;dashed=1;align=left;" vertex="1" parent="jxshLm3MOeYJrLO8u9Th-73">
          <mxGeometry width="424.352286049238" height="69.6" as="geometry" />
        </mxCell>
        <mxCell id="jxshLm3MOeYJrLO8u9Th-75" value="varsn&lt;br&gt;value&lt;br&gt;uuid&lt;br&gt;type" style="rounded=0;whiteSpace=wrap;html=1;" vertex="1" parent="jxshLm3MOeYJrLO8u9Th-73">
          <mxGeometry x="68.60785463071512" width="91.47713950762017" height="69.6" as="geometry" />
        </mxCell>
        <mxCell id="jxshLm3MOeYJrLO8u9Th-78" value="varsn&lt;br&gt;value&lt;br&gt;uuid&lt;br&gt;type" style="rounded=0;whiteSpace=wrap;html=1;" vertex="1" parent="jxshLm3MOeYJrLO8u9Th-73">
          <mxGeometry x="160.08499413833528" width="91.47713950762017" height="69.6" as="geometry" />
        </mxCell>
        <mxCell id="aZvtLxzP1V7c9dnlBgdm-59" value="" style="group" parent="jxshLm3MOeYJrLO8u9Th-95" vertex="1" connectable="0">
          <mxGeometry x="425.5" y="520" width="510" height="180" as="geometry" />
        </mxCell>
        <mxCell id="aZvtLxzP1V7c9dnlBgdm-54" value="&lt;font style=&quot;&quot;&gt;&lt;b style=&quot;&quot;&gt;&lt;font style=&quot;font-size: 16px;&quot;&gt;jobDelayQueue&lt;/font&gt;&lt;/b&gt;&lt;span style=&quot;font-size: 14px;&quot;&gt;：任务超时监测队列，某个任务到达超时时间后，在&lt;/span&gt;&lt;span style=&quot;border-color: var(--border-color);&quot;&gt;&lt;font style=&quot;border-color: var(--border-color); font-size: 16px;&quot;&gt;deviceWaitQueueMap&lt;/font&gt;&lt;/span&gt;&lt;span style=&quot;font-size: 14px; border-color: var(--border-color);&quot;&gt;中遍历，根据uuid查找是否还存在未执行的变量，若有&lt;/span&gt;&lt;span style=&quot;font-size: 14px;&quot;&gt;，则任务执行超时，向用户返回错误提示，并移除未执行的变量，否则任务已执行完成。&lt;/span&gt;&lt;/font&gt;" style="rounded=0;whiteSpace=wrap;html=1;align=left;verticalAlign=top;" parent="aZvtLxzP1V7c9dnlBgdm-59" vertex="1">
          <mxGeometry width="510" height="180" as="geometry" />
        </mxCell>
        <mxCell id="aZvtLxzP1V7c9dnlBgdm-55" value="task1&lt;br&gt;uuid1：任务uuid&lt;br&gt;maxExecuteTime:超时时间" style="rounded=0;whiteSpace=wrap;html=1;align=center;" parent="aZvtLxzP1V7c9dnlBgdm-59" vertex="1">
          <mxGeometry x="8.97" y="81.82" width="101.03" height="81.82" as="geometry" />
        </mxCell>
        <mxCell id="aZvtLxzP1V7c9dnlBgdm-56" value="task4&lt;br&gt;uuid4&lt;br&gt;maxExecuteTime" style="rounded=0;whiteSpace=wrap;html=1;" parent="aZvtLxzP1V7c9dnlBgdm-59" vertex="1">
          <mxGeometry x="377.73" y="81.82" width="112.27" height="81.82" as="geometry" />
        </mxCell>
        <mxCell id="aZvtLxzP1V7c9dnlBgdm-57" value="task2&lt;br&gt;uuid2&lt;br style=&quot;border-color: var(--border-color);&quot;&gt;maxExecuteTime" style="rounded=0;whiteSpace=wrap;html=1;" parent="aZvtLxzP1V7c9dnlBgdm-59" vertex="1">
          <mxGeometry x="155.82" y="81.82" width="93.18" height="81.82" as="geometry" />
        </mxCell>
        <mxCell id="aZvtLxzP1V7c9dnlBgdm-58" value="task3&lt;br&gt;uuid3&lt;br style=&quot;border-color: var(--border-color);&quot;&gt;maxExecuteTime" style="rounded=0;whiteSpace=wrap;html=1;" parent="aZvtLxzP1V7c9dnlBgdm-59" vertex="1">
          <mxGeometry x="263.27" y="81.82" width="102.73" height="81.82" as="geometry" />
        </mxCell>
        <mxCell id="jxshLm3MOeYJrLO8u9Th-10" style="edgeStyle=orthogonalEdgeStyle;rounded=0;orthogonalLoop=1;jettySize=auto;html=1;entryX=0.5;entryY=0;entryDx=0;entryDy=0;exitX=0.5;exitY=1;exitDx=0;exitDy=0;" edge="1" parent="jxshLm3MOeYJrLO8u9Th-95" source="jxshLm3MOeYJrLO8u9Th-1" target="aZvtLxzP1V7c9dnlBgdm-54">
          <mxGeometry relative="1" as="geometry">
            <mxPoint x="489.5" y="330" as="targetPoint" />
            <Array as="points">
              <mxPoint x="33" y="440" />
              <mxPoint x="681" y="440" />
            </Array>
          </mxGeometry>
        </mxCell>
        <mxCell id="jxshLm3MOeYJrLO8u9Th-102" value="系统接收到控制任务，根据任务设置的最长等待时间，开启任务超时监测" style="text;html=1;strokeColor=none;fillColor=none;align=center;verticalAlign=middle;whiteSpace=wrap;rounded=0;" vertex="1" parent="jxshLm3MOeYJrLO8u9Th-95">
          <mxGeometry x="425.5" y="440" width="201.63" height="50" as="geometry" />
        </mxCell>
        <mxCell id="jxshLm3MOeYJrLO8u9Th-112" style="edgeStyle=orthogonalEdgeStyle;rounded=0;orthogonalLoop=1;jettySize=auto;html=1;exitX=0.5;exitY=1;exitDx=0;exitDy=0;entryX=0.5;entryY=0;entryDx=0;entryDy=0;" edge="1" parent="jxshLm3MOeYJrLO8u9Th-95" source="jxshLm3MOeYJrLO8u9Th-1" target="jxshLm3MOeYJrLO8u9Th-11">
          <mxGeometry relative="1" as="geometry">
            <Array as="points">
              <mxPoint x="33" y="440" />
              <mxPoint x="80" y="440" />
            </Array>
          </mxGeometry>
        </mxCell>
        <mxCell id="aZvtLxzP1V7c9dnlBgdm-1" value="通道一" style="rounded=0;whiteSpace=wrap;html=1;verticalAlign=top;" parent="jxshLm3MOeYJrLO8u9Th-95" vertex="1">
          <mxGeometry x="-175.5" y="990" width="380" height="290" as="geometry" />
        </mxCell>
        <mxCell id="jxshLm3MOeYJrLO8u9Th-115" style="edgeStyle=orthogonalEdgeStyle;rounded=0;orthogonalLoop=1;jettySize=auto;html=1;" edge="1" parent="jxshLm3MOeYJrLO8u9Th-95" source="jxshLm3MOeYJrLO8u9Th-11" target="aZvtLxzP1V7c9dnlBgdm-1">
          <mxGeometry relative="1" as="geometry" />
        </mxCell>
        <mxCell id="jxshLm3MOeYJrLO8u9Th-43" value="" style="group" vertex="1" connectable="0" parent="jxshLm3MOeYJrLO8u9Th-95">
          <mxGeometry x="-175.5" y="160" width="422.5" height="170" as="geometry" />
        </mxCell>
        <mxCell id="jxshLm3MOeYJrLO8u9Th-107" value="" style="group" vertex="1" connectable="0" parent="jxshLm3MOeYJrLO8u9Th-43">
          <mxGeometry width="422.5" height="170" as="geometry" />
        </mxCell>
        <mxCell id="jxshLm3MOeYJrLO8u9Th-1" value="&lt;b&gt;&lt;font style=&quot;font-size: 16px;&quot;&gt;varChangeMessages&lt;/font&gt;&lt;/b&gt;" style="rounded=0;whiteSpace=wrap;html=1;align=left;verticalAlign=top;" vertex="1" parent="jxshLm3MOeYJrLO8u9Th-107">
          <mxGeometry x="-2.99" y="20" width="422.5" height="170" as="geometry" />
        </mxCell>
        <mxCell id="aZvtLxzP1V7c9dnlBgdm-35" value="&lt;b&gt;uuid1&lt;/b&gt;&lt;br&gt;&lt;br&gt;varSns&lt;br&gt;maxExecuteTime" style="text;html=1;strokeColor=default;fillColor=none;align=left;verticalAlign=top;whiteSpace=wrap;rounded=0;" parent="jxshLm3MOeYJrLO8u9Th-107" vertex="1">
          <mxGeometry x="142.5" y="59" width="110" height="81" as="geometry" />
        </mxCell>
        <mxCell id="aZvtLxzP1V7c9dnlBgdm-37" value="&lt;b&gt;uuid2&lt;/b&gt;&lt;br&gt;&lt;br&gt;varSns&lt;br&gt;maxExecuteTime" style="text;html=1;strokeColor=default;fillColor=none;align=left;verticalAlign=top;whiteSpace=wrap;rounded=0;" parent="jxshLm3MOeYJrLO8u9Th-107" vertex="1">
          <mxGeometry x="15" y="59" width="110" height="80" as="geometry" />
        </mxCell>
        <mxCell id="jxshLm3MOeYJrLO8u9Th-40" value="&lt;h1 style=&quot;&quot;&gt;&lt;span style=&quot;font-size: 14px; font-weight: 400;&quot;&gt;其他消息&lt;/span&gt;&lt;font style=&quot;font-size: 18px;&quot;&gt;......&lt;/font&gt;&lt;/h1&gt;" style="text;html=1;strokeColor=none;fillColor=none;spacing=5;spacingTop=-20;whiteSpace=wrap;overflow=hidden;rounded=0;verticalAlign=middle;" vertex="1" parent="jxshLm3MOeYJrLO8u9Th-107">
          <mxGeometry x="272.50301369863007" y="70" width="106.98630136986301" height="50" as="geometry" />
        </mxCell>
        <mxCell id="jxshLm3MOeYJrLO8u9Th-104" value="" style="group" vertex="1" connectable="0" parent="1">
          <mxGeometry x="100" y="-820" width="980" height="470" as="geometry" />
        </mxCell>
        <mxCell id="NzLtEGVgidF3bGFGC7xt-2" value="" style="group" parent="jxshLm3MOeYJrLO8u9Th-104" vertex="1" connectable="0">
          <mxGeometry x="-67.5" y="-397.8" width="492.5" height="208" as="geometry" />
        </mxCell>
        <mxCell id="aZvtLxzP1V7c9dnlBgdm-68" value="" style="group" parent="NzLtEGVgidF3bGFGC7xt-2" vertex="1" connectable="0">
          <mxGeometry width="105" height="80" as="geometry" />
        </mxCell>
        <mxCell id="aZvtLxzP1V7c9dnlBgdm-69" value="设备1" style="rounded=0;whiteSpace=wrap;html=1;verticalAlign=top;" parent="aZvtLxzP1V7c9dnlBgdm-68" vertex="1">
          <mxGeometry width="105" height="80" as="geometry" />
        </mxCell>
        <mxCell id="aZvtLxzP1V7c9dnlBgdm-70" value="&lt;font color=&quot;#3333ff&quot;&gt;command&lt;/font&gt;" style="text;html=1;strokeColor=none;fillColor=none;align=center;verticalAlign=middle;whiteSpace=wrap;rounded=0;" parent="aZvtLxzP1V7c9dnlBgdm-68" vertex="1">
          <mxGeometry x="23" y="30" width="60" height="25" as="geometry" />
        </mxCell>
        <mxCell id="aZvtLxzP1V7c9dnlBgdm-71" value="&lt;div style=&quot;&quot;&gt;&lt;pre style=&quot;&quot;&gt;&lt;font face=&quot;Helvetica&quot; style=&quot;font-size: 12px;&quot;&gt;hasDataToSend&lt;/font&gt;&lt;/pre&gt;&lt;/div&gt;" style="text;html=1;strokeColor=none;fillColor=none;align=center;verticalAlign=middle;whiteSpace=wrap;rounded=0;" parent="aZvtLxzP1V7c9dnlBgdm-68" vertex="1">
          <mxGeometry x="2" y="50" width="100" height="30" as="geometry" />
        </mxCell>
        <mxCell id="aZvtLxzP1V7c9dnlBgdm-89" style="edgeStyle=orthogonalEdgeStyle;rounded=0;orthogonalLoop=1;jettySize=auto;html=1;entryX=0.5;entryY=1;entryDx=0;entryDy=0;" parent="NzLtEGVgidF3bGFGC7xt-2" source="aZvtLxzP1V7c9dnlBgdm-79" target="aZvtLxzP1V7c9dnlBgdm-71" edge="1">
          <mxGeometry relative="1" as="geometry" />
        </mxCell>
        <mxCell id="aZvtLxzP1V7c9dnlBgdm-79" value="&lt;h1 style=&quot;&quot;&gt;&lt;span style=&quot;font-size: 14px; font-weight: 400;&quot;&gt;其他设备&lt;/span&gt;&lt;font style=&quot;font-size: 18px;&quot;&gt;......&lt;/font&gt;&lt;/h1&gt;" style="text;html=1;strokeColor=none;fillColor=none;spacing=5;spacingTop=-20;whiteSpace=wrap;overflow=hidden;rounded=0;verticalAlign=middle;" parent="NzLtEGVgidF3bGFGC7xt-2" vertex="1">
          <mxGeometry x="-3" y="143" width="110" height="50" as="geometry" />
        </mxCell>
        <mxCell id="aZvtLxzP1V7c9dnlBgdm-91" value="" style="group" parent="NzLtEGVgidF3bGFGC7xt-2" vertex="1" connectable="0">
          <mxGeometry x="197.5" width="105" height="80" as="geometry" />
        </mxCell>
        <mxCell id="aZvtLxzP1V7c9dnlBgdm-92" value="设备2" style="rounded=0;whiteSpace=wrap;html=1;verticalAlign=top;" parent="aZvtLxzP1V7c9dnlBgdm-91" vertex="1">
          <mxGeometry width="105" height="80" as="geometry" />
        </mxCell>
        <mxCell id="aZvtLxzP1V7c9dnlBgdm-93" value="&lt;font color=&quot;#3333ff&quot;&gt;command&lt;/font&gt;" style="text;html=1;strokeColor=none;fillColor=none;align=center;verticalAlign=middle;whiteSpace=wrap;rounded=0;" parent="aZvtLxzP1V7c9dnlBgdm-91" vertex="1">
          <mxGeometry x="23" y="30" width="60" height="25" as="geometry" />
        </mxCell>
        <mxCell id="aZvtLxzP1V7c9dnlBgdm-94" value="&lt;div style=&quot;&quot;&gt;&lt;pre style=&quot;&quot;&gt;&lt;font face=&quot;Helvetica&quot; style=&quot;font-size: 12px;&quot;&gt;hasDataToSend&lt;/font&gt;&lt;/pre&gt;&lt;/div&gt;" style="text;html=1;strokeColor=none;fillColor=none;align=center;verticalAlign=middle;whiteSpace=wrap;rounded=0;" parent="aZvtLxzP1V7c9dnlBgdm-91" vertex="1">
          <mxGeometry x="2" y="50" width="100" height="30" as="geometry" />
        </mxCell>
        <mxCell id="aZvtLxzP1V7c9dnlBgdm-95" style="edgeStyle=orthogonalEdgeStyle;rounded=0;orthogonalLoop=1;jettySize=auto;html=1;entryX=0;entryY=0.5;entryDx=0;entryDy=0;" parent="NzLtEGVgidF3bGFGC7xt-2" source="aZvtLxzP1V7c9dnlBgdm-69" target="aZvtLxzP1V7c9dnlBgdm-92" edge="1">
          <mxGeometry relative="1" as="geometry" />
        </mxCell>
        <mxCell id="aZvtLxzP1V7c9dnlBgdm-73" value="" style="group" parent="NzLtEGVgidF3bGFGC7xt-2" vertex="1" connectable="0">
          <mxGeometry x="197.5" y="128" width="105" height="80" as="geometry" />
        </mxCell>
        <mxCell id="aZvtLxzP1V7c9dnlBgdm-74" value="设备3" style="rounded=0;whiteSpace=wrap;html=1;verticalAlign=top;" parent="aZvtLxzP1V7c9dnlBgdm-73" vertex="1">
          <mxGeometry width="105" height="80" as="geometry" />
        </mxCell>
        <mxCell id="aZvtLxzP1V7c9dnlBgdm-75" value="&lt;font color=&quot;#3333ff&quot;&gt;command&lt;/font&gt;" style="text;html=1;strokeColor=none;fillColor=none;align=center;verticalAlign=middle;whiteSpace=wrap;rounded=0;" parent="aZvtLxzP1V7c9dnlBgdm-73" vertex="1">
          <mxGeometry x="23" y="25" width="60" height="30" as="geometry" />
        </mxCell>
        <mxCell id="aZvtLxzP1V7c9dnlBgdm-76" value="&lt;div style=&quot;&quot;&gt;&lt;pre style=&quot;&quot;&gt;&lt;font face=&quot;Helvetica&quot; style=&quot;font-size: 12px;&quot;&gt;hasDataToSend&lt;/font&gt;&lt;/pre&gt;&lt;/div&gt;" style="text;html=1;strokeColor=none;fillColor=none;align=center;verticalAlign=middle;whiteSpace=wrap;rounded=0;" parent="aZvtLxzP1V7c9dnlBgdm-73" vertex="1">
          <mxGeometry x="2" y="50" width="100" height="30" as="geometry" />
        </mxCell>
        <mxCell id="aZvtLxzP1V7c9dnlBgdm-96" style="edgeStyle=orthogonalEdgeStyle;rounded=0;orthogonalLoop=1;jettySize=auto;html=1;entryX=0.5;entryY=0;entryDx=0;entryDy=0;" parent="NzLtEGVgidF3bGFGC7xt-2" source="aZvtLxzP1V7c9dnlBgdm-92" target="aZvtLxzP1V7c9dnlBgdm-74" edge="1">
          <mxGeometry relative="1" as="geometry" />
        </mxCell>
        <mxCell id="aZvtLxzP1V7c9dnlBgdm-80" style="edgeStyle=orthogonalEdgeStyle;rounded=0;orthogonalLoop=1;jettySize=auto;html=1;exitX=0;exitY=0.5;exitDx=0;exitDy=0;entryX=1;entryY=0.5;entryDx=0;entryDy=0;" parent="NzLtEGVgidF3bGFGC7xt-2" source="aZvtLxzP1V7c9dnlBgdm-74" target="aZvtLxzP1V7c9dnlBgdm-79" edge="1">
          <mxGeometry relative="1" as="geometry" />
        </mxCell>
        <mxCell id="jxshLm3MOeYJrLO8u9Th-105" value="" style="group" vertex="1" connectable="0" parent="jxshLm3MOeYJrLO8u9Th-104">
          <mxGeometry x="320" y="-454.8" width="560" height="320" as="geometry" />
        </mxCell>
        <mxCell id="NzLtEGVgidF3bGFGC7xt-3" value="通道二" style="rounded=0;whiteSpace=wrap;html=1;verticalAlign=top;" parent="jxshLm3MOeYJrLO8u9Th-105" vertex="1">
          <mxGeometry x="50" width="380" height="290" as="geometry" />
        </mxCell>
        <mxCell id="NzLtEGVgidF3bGFGC7xt-4" value="" style="group" parent="jxshLm3MOeYJrLO8u9Th-105" vertex="1" connectable="0">
          <mxGeometry x="32.5" y="69.74683544303797" width="492.5" height="208.02029535864978" as="geometry" />
        </mxCell>
        <mxCell id="NzLtEGVgidF3bGFGC7xt-5" value="" style="group" parent="NzLtEGVgidF3bGFGC7xt-4" vertex="1" connectable="0">
          <mxGeometry width="105" height="80" as="geometry" />
        </mxCell>
        <mxCell id="NzLtEGVgidF3bGFGC7xt-6" value="设备4" style="rounded=0;whiteSpace=wrap;html=1;verticalAlign=top;" parent="NzLtEGVgidF3bGFGC7xt-5" vertex="1">
          <mxGeometry width="105" height="80" as="geometry" />
        </mxCell>
        <mxCell id="NzLtEGVgidF3bGFGC7xt-7" value="&lt;font color=&quot;#3333ff&quot;&gt;command&lt;/font&gt;" style="text;html=1;strokeColor=none;fillColor=none;align=center;verticalAlign=middle;whiteSpace=wrap;rounded=0;" parent="NzLtEGVgidF3bGFGC7xt-5" vertex="1">
          <mxGeometry x="23" y="30" width="60" height="25" as="geometry" />
        </mxCell>
        <mxCell id="NzLtEGVgidF3bGFGC7xt-8" value="&lt;div style=&quot;&quot;&gt;&lt;pre style=&quot;&quot;&gt;&lt;font face=&quot;Helvetica&quot; style=&quot;font-size: 12px;&quot;&gt;hasDataToSend&lt;/font&gt;&lt;/pre&gt;&lt;/div&gt;" style="text;html=1;strokeColor=none;fillColor=none;align=center;verticalAlign=middle;whiteSpace=wrap;rounded=0;" parent="NzLtEGVgidF3bGFGC7xt-5" vertex="1">
          <mxGeometry x="2" y="50" width="100" height="30" as="geometry" />
        </mxCell>
        <mxCell id="NzLtEGVgidF3bGFGC7xt-16" value="" style="group" parent="NzLtEGVgidF3bGFGC7xt-4" vertex="1" connectable="0">
          <mxGeometry x="197.5" width="105" height="80" as="geometry" />
        </mxCell>
        <mxCell id="NzLtEGVgidF3bGFGC7xt-17" value="设备5" style="rounded=0;whiteSpace=wrap;html=1;verticalAlign=top;" parent="NzLtEGVgidF3bGFGC7xt-16" vertex="1">
          <mxGeometry width="105" height="80" as="geometry" />
        </mxCell>
        <mxCell id="NzLtEGVgidF3bGFGC7xt-18" value="&lt;font color=&quot;#3333ff&quot;&gt;command&lt;/font&gt;" style="text;html=1;strokeColor=none;fillColor=none;align=center;verticalAlign=middle;whiteSpace=wrap;rounded=0;" parent="NzLtEGVgidF3bGFGC7xt-16" vertex="1">
          <mxGeometry x="23" y="30" width="60" height="25" as="geometry" />
        </mxCell>
        <mxCell id="NzLtEGVgidF3bGFGC7xt-19" value="&lt;div style=&quot;&quot;&gt;&lt;pre style=&quot;&quot;&gt;&lt;font face=&quot;Helvetica&quot; style=&quot;font-size: 12px;&quot;&gt;hasDataToSend&lt;/font&gt;&lt;/pre&gt;&lt;/div&gt;" style="text;html=1;strokeColor=none;fillColor=none;align=center;verticalAlign=middle;whiteSpace=wrap;rounded=0;" parent="NzLtEGVgidF3bGFGC7xt-16" vertex="1">
          <mxGeometry x="2" y="50" width="100" height="30" as="geometry" />
        </mxCell>
        <mxCell id="NzLtEGVgidF3bGFGC7xt-20" style="edgeStyle=orthogonalEdgeStyle;rounded=0;orthogonalLoop=1;jettySize=auto;html=1;entryX=0;entryY=0.5;entryDx=0;entryDy=0;" parent="NzLtEGVgidF3bGFGC7xt-4" source="NzLtEGVgidF3bGFGC7xt-6" target="NzLtEGVgidF3bGFGC7xt-17" edge="1">
          <mxGeometry relative="1" as="geometry" />
        </mxCell>
        <mxCell id="NzLtEGVgidF3bGFGC7xt-14" value="&lt;h1 style=&quot;&quot;&gt;&lt;span style=&quot;font-size: 14px; font-weight: 400;&quot;&gt;其他设备&lt;/span&gt;&lt;font style=&quot;font-size: 18px;&quot;&gt;......&lt;/font&gt;&lt;/h1&gt;" style="text;html=1;strokeColor=none;fillColor=none;spacing=5;spacingTop=-20;whiteSpace=wrap;overflow=hidden;rounded=0;verticalAlign=middle;" parent="jxshLm3MOeYJrLO8u9Th-105" vertex="1">
          <mxGeometry x="29.5" y="210.00227848101264" width="110" height="61.18143459915611" as="geometry" />
        </mxCell>
        <mxCell id="NzLtEGVgidF3bGFGC7xt-13" style="edgeStyle=orthogonalEdgeStyle;rounded=0;orthogonalLoop=1;jettySize=auto;html=1;entryX=0.5;entryY=1;entryDx=0;entryDy=0;" parent="jxshLm3MOeYJrLO8u9Th-105" source="NzLtEGVgidF3bGFGC7xt-14" target="NzLtEGVgidF3bGFGC7xt-8" edge="1">
          <mxGeometry relative="1" as="geometry" />
        </mxCell>
        <mxCell id="jxshLm3MOeYJrLO8u9Th-114" style="edgeStyle=orthogonalEdgeStyle;rounded=0;orthogonalLoop=1;jettySize=auto;html=1;" edge="1" parent="jxshLm3MOeYJrLO8u9Th-105" source="NzLtEGVgidF3bGFGC7xt-10" target="NzLtEGVgidF3bGFGC7xt-14">
          <mxGeometry relative="1" as="geometry" />
        </mxCell>
        <mxCell id="NzLtEGVgidF3bGFGC7xt-9" value="" style="group" parent="jxshLm3MOeYJrLO8u9Th-105" vertex="1" connectable="0">
          <mxGeometry x="230" y="201.58683544303798" width="105" height="78.02" as="geometry" />
        </mxCell>
        <mxCell id="NzLtEGVgidF3bGFGC7xt-10" value="设备6" style="rounded=0;whiteSpace=wrap;html=1;verticalAlign=top;" parent="NzLtEGVgidF3bGFGC7xt-9" vertex="1">
          <mxGeometry width="105" height="78.02" as="geometry" />
        </mxCell>
        <mxCell id="NzLtEGVgidF3bGFGC7xt-11" value="&lt;font color=&quot;#3333ff&quot;&gt;command&lt;/font&gt;" style="text;html=1;strokeColor=none;fillColor=none;align=center;verticalAlign=middle;whiteSpace=wrap;rounded=0;" parent="NzLtEGVgidF3bGFGC7xt-9" vertex="1">
          <mxGeometry x="23" y="24.38125" width="60" height="29.2575" as="geometry" />
        </mxCell>
        <mxCell id="NzLtEGVgidF3bGFGC7xt-12" value="&lt;div style=&quot;&quot;&gt;&lt;pre style=&quot;&quot;&gt;&lt;font face=&quot;Helvetica&quot; style=&quot;font-size: 12px;&quot;&gt;hasDataToSend&lt;/font&gt;&lt;/pre&gt;&lt;/div&gt;" style="text;html=1;strokeColor=none;fillColor=none;align=center;verticalAlign=middle;whiteSpace=wrap;rounded=0;" parent="NzLtEGVgidF3bGFGC7xt-9" vertex="1">
          <mxGeometry x="2" y="48.7625" width="100" height="29.2575" as="geometry" />
        </mxCell>
        <mxCell id="NzLtEGVgidF3bGFGC7xt-21" style="edgeStyle=orthogonalEdgeStyle;rounded=0;orthogonalLoop=1;jettySize=auto;html=1;" parent="jxshLm3MOeYJrLO8u9Th-105" source="NzLtEGVgidF3bGFGC7xt-17" target="NzLtEGVgidF3bGFGC7xt-10" edge="1">
          <mxGeometry relative="1" as="geometry" />
        </mxCell>
        <mxCell id="jxshLm3MOeYJrLO8u9Th-108" value="" style="group" vertex="1" connectable="0" parent="1">
          <mxGeometry x="632.99" y="-2130" width="92" height="30" as="geometry" />
        </mxCell>
        <mxCell id="jxshLm3MOeYJrLO8u9Th-116" style="edgeStyle=orthogonalEdgeStyle;rounded=0;orthogonalLoop=1;jettySize=auto;html=1;entryX=0.5;entryY=0;entryDx=0;entryDy=0;" edge="1" parent="1" source="jxshLm3MOeYJrLO8u9Th-11" target="NzLtEGVgidF3bGFGC7xt-3">
          <mxGeometry relative="1" as="geometry" />
        </mxCell>
        <mxCell id="jxshLm3MOeYJrLO8u9Th-4" value="用户" style="ellipse;whiteSpace=wrap;html=1;" vertex="1" parent="1">
          <mxGeometry x="182.64" y="-2310" width="131.25" height="80" as="geometry" />
        </mxCell>
        <mxCell id="jxshLm3MOeYJrLO8u9Th-42" style="edgeStyle=orthogonalEdgeStyle;rounded=0;orthogonalLoop=1;jettySize=auto;html=1;entryX=0.499;entryY=0.041;entryDx=0;entryDy=0;entryPerimeter=0;" edge="1" parent="1" source="jxshLm3MOeYJrLO8u9Th-4" target="jxshLm3MOeYJrLO8u9Th-1">
          <mxGeometry relative="1" as="geometry" />
        </mxCell>
        <mxCell id="jxshLm3MOeYJrLO8u9Th-109" value="用户向消息队列中放置控制任务" style="edgeLabel;html=1;align=center;verticalAlign=middle;resizable=0;points=[];" vertex="1" connectable="0" parent="jxshLm3MOeYJrLO8u9Th-42">
          <mxGeometry x="-0.4181" relative="1" as="geometry">
            <mxPoint as="offset" />
          </mxGeometry>
        </mxCell>
        <mxCell id="aZvtLxzP1V7c9dnlBgdm-103" value="&lt;b style=&quot;font-size: 20px;&quot;&gt;&lt;font color=&quot;#00cc00&quot; style=&quot;font-size: 20px;&quot;&gt;New&lt;/font&gt;&lt;/b&gt;" style="text;html=1;align=center;verticalAlign=middle;whiteSpace=wrap;rounded=0;fontSize=20;" parent="1" vertex="1">
          <mxGeometry x="-20" y="-2320" width="60" height="30" as="geometry" />
        </mxCell>
        <mxCell id="jxshLm3MOeYJrLO8u9Th-117" value="&lt;font style=&quot;font-size: 14px;&quot;&gt;&lt;b style=&quot;font-size: 14px;&quot;&gt;变量控制逻辑、流程&lt;/b&gt;&lt;br&gt;&lt;br&gt;&lt;span style=&quot;font-size: 14px;&quot;&gt;1、消息队列中收到用户的任务消息，&lt;/span&gt;&lt;br&gt;&lt;span style=&quot;font-size: 14px;&quot;&gt;若任务的maxExecuteTime为0，则按照原有逻辑：对应采集设备的canYK为false，则直接返回给用户“正在执行遥控命令.....”，否则直接调用设备的&lt;/span&gt;handleValueChangedMessage；&lt;br&gt;若任务的maxExecuteTime为0&lt;span style=&quot;font-size: 14px;&quot;&gt;，则将任务中需要控制的变量，按顺序放入&lt;/span&gt;&lt;span style=&quot;border-color: var(--border-color);&quot;&gt;&lt;font style=&quot;border-color: var(--border-color); font-size: 14px;&quot;&gt;deviceWaitQueueMap中对应设备的等待队列中，并在延迟队列中添加一个在任务超时后执行的监测task；&lt;br&gt;&lt;/font&gt;&lt;/span&gt;&lt;br&gt;2、定时扫描deviceWaitQueueMap，&lt;font color=&quot;#ff6666&quot;&gt;与DTU轮询周期相近&lt;/font&gt;，若设备的等待队列不为空且canYK为true，则调用设备的handleValueChangedMessage，将等待队列的第一个元素出列，放入采集设备等待DTU轮询执行，&lt;font color=&quot;#ff6666&quot;&gt;若设备支持多个变量同时执行？若等待队列中有重复变量时执行最新的一个，向用户怎么反馈？&lt;/font&gt;&lt;br&gt;&lt;br&gt;3、任务超时监测队列，某个任务到达超时时间后，在&lt;span style=&quot;border-color: var(--border-color); font-size: 12px;&quot;&gt;&lt;font style=&quot;border-color: var(--border-color); font-size: 16px;&quot;&gt;deviceWaitQueueMap&lt;/font&gt;&lt;/span&gt;&lt;span style=&quot;border-color: var(--border-color);&quot;&gt;中遍历，根据uuid查找是否还存在未执行的变量，若有&lt;/span&gt;&lt;span style=&quot;border-color: var(--border-color);&quot;&gt;，则任务执行超时，向用户返回错误提示，并移除未执行的变量，否则任务已执行完成。&lt;/span&gt;&lt;br&gt;&lt;br&gt;&lt;span style=&quot;font-size: 14px;&quot;&gt;4、DTU通道内轮询采集设备，若设备的command不为空且hasDataToSend为true，则将该设备的command下发执行，并将hasDataSend设为false，否则不做操作；&lt;/span&gt;&lt;br&gt;&lt;br&gt;&lt;span style=&quot;font-size: 14px;&quot;&gt;5、通道接收到命令执行完成的报文，找到报文对应的设备，清空其command，向用户发送执行成功提示。&lt;/span&gt;&lt;br&gt;&lt;/font&gt;" style="text;html=1;strokeColor=none;fillColor=none;align=left;verticalAlign=top;whiteSpace=wrap;rounded=0;" vertex="1" parent="1">
          <mxGeometry x="510" y="-2310" width="630" height="390" as="geometry" />
        </mxCell>
      </root>
    </mxGraphModel>
  </diagram>
</mxfile>
